<mxfile host="app.diagrams.net" modified="2022-03-13T14:30:01.796Z" agent="5.0 (Macintosh; Intel Mac OS X 10_15_7) AppleWebKit/537.36 (KHTML, like Gecko) Chrome/99.0.4844.51 Safari/537.36" etag="ErEB3H4Io6HlMvyQVwAN" version="17.1.2" type="github">
  <diagram name="Page-1" id="97916047-d0de-89f5-080d-49f4d83e522f">
    <mxGraphModel dx="2366" dy="1155" grid="1" gridSize="10" guides="1" tooltips="1" connect="1" arrows="1" fold="1" page="1" pageScale="1.5" pageWidth="1169" pageHeight="827" background="none" math="0" shadow="0">
      <root>
        <mxCell id="0" />
        <mxCell id="1" parent="0" />
        <mxCell id="yg2kx18YFGhvjqjeRE_n-64" style="edgeStyle=none;rounded=0;orthogonalLoop=1;jettySize=auto;html=1;exitX=0.5;exitY=1;exitDx=0;exitDy=0;entryX=0.5;entryY=0;entryDx=0;entryDy=0;" edge="1" parent="1" source="4" target="8">
          <mxGeometry relative="1" as="geometry" />
        </mxCell>
        <mxCell id="4" value="何塞 阿尔卡蒂奥 布恩迪亚(1)&#xa;2的丈夫-表兄妹&#xa;总是追求新意,杀死了斗鸡的人,&#xa;暮年被绑在树上, 有些疯了," style="rounded=1;fillColor=#10739E;strokeColor=none;shadow=1;gradientColor=none;fontStyle=1;fontColor=#FFFFFF;fontSize=14;" parent="1" vertex="1">
          <mxGeometry x="300" y="450.5" width="200" height="69.5" as="geometry" />
        </mxCell>
        <mxCell id="yg2kx18YFGhvjqjeRE_n-66" style="edgeStyle=orthogonalEdgeStyle;rounded=0;orthogonalLoop=1;jettySize=auto;html=1;exitX=0.5;exitY=1;exitDx=0;exitDy=0;entryX=0.5;entryY=0;entryDx=0;entryDy=0;" edge="1" parent="1" source="5" target="8">
          <mxGeometry relative="1" as="geometry" />
        </mxCell>
        <mxCell id="yg2kx18YFGhvjqjeRE_n-69" style="edgeStyle=orthogonalEdgeStyle;rounded=0;orthogonalLoop=1;jettySize=auto;html=1;exitX=0.5;exitY=1;exitDx=0;exitDy=0;" edge="1" parent="1" source="5" target="23">
          <mxGeometry relative="1" as="geometry" />
        </mxCell>
        <mxCell id="5" value="乌尔苏拉(2)&#xa;1的妻子-表兄妹&#xa;活到第六代 一百多岁" style="rounded=1;fillColor=#10739E;strokeColor=none;shadow=1;gradientColor=none;fontStyle=1;fontColor=#FFFFFF;fontSize=14;" parent="1" vertex="1">
          <mxGeometry x="542" y="455.5" width="200" height="60" as="geometry" />
        </mxCell>
        <mxCell id="8" value="大儿子 何塞 阿尔卡蒂奥(4)&#xa;与3生下8" style="rounded=1;fillColor=#10739E;strokeColor=none;shadow=1;gradientColor=none;fontStyle=1;fontColor=#FFFFFF;fontSize=14;" parent="1" vertex="1">
          <mxGeometry x="300" y="625.5" width="200" height="60" as="geometry" />
        </mxCell>
        <mxCell id="13" value="丽贝卡(收养)(5)" style="rounded=1;fillColor=#10739E;strokeColor=none;shadow=1;gradientColor=none;fontStyle=1;fontColor=#FFFFFF;fontSize=14;" parent="1" vertex="1">
          <mxGeometry x="542" y="625.5" width="200" height="60" as="geometry" />
        </mxCell>
        <mxCell id="yg2kx18YFGhvjqjeRE_n-80" style="edgeStyle=orthogonalEdgeStyle;rounded=0;orthogonalLoop=1;jettySize=auto;html=1;exitX=0.5;exitY=1;exitDx=0;exitDy=0;entryX=0.5;entryY=0;entryDx=0;entryDy=0;" edge="1" parent="1" source="18" target="yg2kx18YFGhvjqjeRE_n-77">
          <mxGeometry relative="1" as="geometry">
            <Array as="points">
              <mxPoint x="930" y="820" />
              <mxPoint x="745" y="820" />
            </Array>
          </mxGeometry>
        </mxCell>
        <mxCell id="yg2kx18YFGhvjqjeRE_n-82" style="edgeStyle=orthogonalEdgeStyle;rounded=0;orthogonalLoop=1;jettySize=auto;html=1;exitX=0.5;exitY=1;exitDx=0;exitDy=0;entryX=0.5;entryY=0;entryDx=0;entryDy=0;" edge="1" parent="1" source="18" target="yg2kx18YFGhvjqjeRE_n-81">
          <mxGeometry relative="1" as="geometry" />
        </mxCell>
        <mxCell id="18" value="奥雷里亚诺 布恩迪(6)" style="rounded=1;fillColor=#10739E;strokeColor=none;shadow=1;gradientColor=none;fontStyle=1;fontColor=#FFFFFF;fontSize=14;" parent="1" vertex="1">
          <mxGeometry x="830" y="625.5" width="200" height="60" as="geometry" />
        </mxCell>
        <mxCell id="23" value="阿玛兰妲(7)" style="rounded=1;fillColor=#10739E;strokeColor=none;shadow=1;gradientColor=none;fontStyle=1;fontColor=#FFFFFF;fontSize=14;" parent="1" vertex="1">
          <mxGeometry x="1092" y="625.5" width="200" height="60" as="geometry" />
        </mxCell>
        <mxCell id="yg2kx18YFGhvjqjeRE_n-63" value="" style="endArrow=classic;html=1;rounded=0;exitX=0.5;exitY=1;exitDx=0;exitDy=0;entryX=0.5;entryY=0;entryDx=0;entryDy=0;edgeStyle=orthogonalEdgeStyle;" edge="1" parent="1" source="5" target="18">
          <mxGeometry width="50" height="50" relative="1" as="geometry">
            <mxPoint x="640" y="570" as="sourcePoint" />
            <mxPoint x="910" y="570" as="targetPoint" />
          </mxGeometry>
        </mxCell>
        <mxCell id="yg2kx18YFGhvjqjeRE_n-65" value="" style="endArrow=classic;html=1;rounded=0;entryX=0.5;entryY=0;entryDx=0;entryDy=0;exitX=0.5;exitY=1;exitDx=0;exitDy=0;edgeStyle=orthogonalEdgeStyle;" edge="1" parent="1" source="5" target="13">
          <mxGeometry width="50" height="50" relative="1" as="geometry">
            <mxPoint x="670" y="560" as="sourcePoint" />
            <mxPoint x="680" y="640" as="targetPoint" />
          </mxGeometry>
        </mxCell>
        <mxCell id="yg2kx18YFGhvjqjeRE_n-79" style="edgeStyle=orthogonalEdgeStyle;rounded=0;orthogonalLoop=1;jettySize=auto;html=1;exitX=1;exitY=0.5;exitDx=0;exitDy=0;entryX=0.5;entryY=0;entryDx=0;entryDy=0;" edge="1" parent="1" source="yg2kx18YFGhvjqjeRE_n-67" target="yg2kx18YFGhvjqjeRE_n-77">
          <mxGeometry relative="1" as="geometry" />
        </mxCell>
        <mxCell id="yg2kx18YFGhvjqjeRE_n-67" value="庇拉尔 特尔内拉(3)" style="rounded=1;fillColor=#10739E;strokeColor=none;shadow=1;gradientColor=none;fontStyle=1;fontColor=#FFFFFF;fontSize=14;" vertex="1" parent="1">
          <mxGeometry x="420" y="790" width="150" height="60" as="geometry" />
        </mxCell>
        <mxCell id="yg2kx18YFGhvjqjeRE_n-72" value="4和5是夫妻, 无后&lt;br&gt;但做爱影响整个镇" style="rounded=0;whiteSpace=wrap;html=1;" vertex="1" parent="1">
          <mxGeometry x="460" y="685.5" width="120" height="60" as="geometry" />
        </mxCell>
        <mxCell id="yg2kx18YFGhvjqjeRE_n-94" style="edgeStyle=orthogonalEdgeStyle;rounded=0;orthogonalLoop=1;jettySize=auto;html=1;exitX=0.5;exitY=1;exitDx=0;exitDy=0;entryX=0.5;entryY=0;entryDx=0;entryDy=0;" edge="1" parent="1" source="yg2kx18YFGhvjqjeRE_n-73" target="yg2kx18YFGhvjqjeRE_n-91">
          <mxGeometry relative="1" as="geometry" />
        </mxCell>
        <mxCell id="yg2kx18YFGhvjqjeRE_n-96" style="edgeStyle=orthogonalEdgeStyle;rounded=0;orthogonalLoop=1;jettySize=auto;html=1;exitX=0.5;exitY=1;exitDx=0;exitDy=0;entryX=0.5;entryY=0;entryDx=0;entryDy=0;" edge="1" parent="1" source="yg2kx18YFGhvjqjeRE_n-73" target="yg2kx18YFGhvjqjeRE_n-92">
          <mxGeometry relative="1" as="geometry">
            <Array as="points">
              <mxPoint x="400" y="1120" />
              <mxPoint x="628" y="1120" />
            </Array>
          </mxGeometry>
        </mxCell>
        <mxCell id="yg2kx18YFGhvjqjeRE_n-97" style="edgeStyle=orthogonalEdgeStyle;rounded=0;orthogonalLoop=1;jettySize=auto;html=1;exitX=0.5;exitY=1;exitDx=0;exitDy=0;entryX=0.5;entryY=0;entryDx=0;entryDy=0;" edge="1" parent="1" source="yg2kx18YFGhvjqjeRE_n-73" target="yg2kx18YFGhvjqjeRE_n-93">
          <mxGeometry relative="1" as="geometry">
            <Array as="points">
              <mxPoint x="400" y="1120" />
              <mxPoint x="846" y="1120" />
            </Array>
          </mxGeometry>
        </mxCell>
        <mxCell id="yg2kx18YFGhvjqjeRE_n-73" value="阿尔卡蒂奥(8)&#xa;自由党起义后,6给他权力&#xa;随之为非作歹 &#xa;后死于判决" style="rounded=1;fillColor=#10739E;strokeColor=none;shadow=1;gradientColor=none;fontStyle=1;fontColor=#FFFFFF;fontSize=14;" vertex="1" parent="1">
          <mxGeometry x="313.75" y="890" width="172.5" height="70" as="geometry" />
        </mxCell>
        <mxCell id="yg2kx18YFGhvjqjeRE_n-75" value="" style="endArrow=classic;html=1;rounded=0;entryX=0.5;entryY=0;entryDx=0;entryDy=0;exitX=0.5;exitY=1;exitDx=0;exitDy=0;" edge="1" parent="1" source="8" target="yg2kx18YFGhvjqjeRE_n-73">
          <mxGeometry width="50" height="50" relative="1" as="geometry">
            <mxPoint x="910" y="960" as="sourcePoint" />
            <mxPoint x="960" y="910" as="targetPoint" />
          </mxGeometry>
        </mxCell>
        <mxCell id="yg2kx18YFGhvjqjeRE_n-76" value="" style="endArrow=classic;html=1;rounded=0;exitX=0;exitY=0.5;exitDx=0;exitDy=0;edgeStyle=orthogonalEdgeStyle;" edge="1" parent="1" source="yg2kx18YFGhvjqjeRE_n-67">
          <mxGeometry width="50" height="50" relative="1" as="geometry">
            <mxPoint x="910" y="860" as="sourcePoint" />
            <mxPoint x="400" y="890" as="targetPoint" />
          </mxGeometry>
        </mxCell>
        <mxCell id="yg2kx18YFGhvjqjeRE_n-77" value="奥雷里亚诺 何塞(9)&#xa;与7发生关系, 未结婚,无后" style="rounded=1;fillColor=#10739E;strokeColor=none;shadow=1;gradientColor=none;fontStyle=1;fontColor=#FFFFFF;fontSize=14;" vertex="1" parent="1">
          <mxGeometry x="660" y="895" width="170" height="60" as="geometry" />
        </mxCell>
        <mxCell id="yg2kx18YFGhvjqjeRE_n-81" value="奥雷里亚诺 母性(10)&#xa;在军中为改良血统" style="rounded=1;fillColor=#10739E;strokeColor=none;shadow=1;gradientColor=none;fontStyle=1;fontColor=#FFFFFF;fontSize=14;" vertex="1" parent="1">
          <mxGeometry x="855" y="895" width="150" height="60" as="geometry" />
        </mxCell>
        <mxCell id="yg2kx18YFGhvjqjeRE_n-83" value="蕾梅黛丝(11)&#xa;里正最小的女儿&#xa;没过青春期就嫁给6&#xa;被7意外毒死,无后" style="rounded=1;fillColor=#10739E;strokeColor=none;shadow=1;gradientColor=none;fontStyle=1;fontColor=#FFFFFF;fontSize=14;" vertex="1" parent="1">
          <mxGeometry x="990" y="730" width="150" height="70" as="geometry" />
        </mxCell>
        <mxCell id="yg2kx18YFGhvjqjeRE_n-85" value="皮埃特罗 克里斯皮(12)&#xa;钢琴师,与5订婚, 但5变心&#xa;后追求7" style="rounded=1;fillColor=#10739E;strokeColor=none;shadow=1;gradientColor=none;fontStyle=1;fontColor=#FFFFFF;fontSize=14;" vertex="1" parent="1">
          <mxGeometry x="1150" y="735" width="200" height="60" as="geometry" />
        </mxCell>
        <mxCell id="yg2kx18YFGhvjqjeRE_n-86" value="赫里内勒多 马尔克斯(13)&#xa;追随6打仗,追求7" style="rounded=1;fillColor=#10739E;strokeColor=none;shadow=1;gradientColor=none;fontStyle=1;fontColor=#FFFFFF;fontSize=14;" vertex="1" parent="1">
          <mxGeometry x="1370" y="735" width="200" height="60" as="geometry" />
        </mxCell>
        <mxCell id="yg2kx18YFGhvjqjeRE_n-88" value="" style="endArrow=none;dashed=1;html=1;rounded=0;entryX=0.5;entryY=1;entryDx=0;entryDy=0;exitX=0.5;exitY=0;exitDx=0;exitDy=0;edgeStyle=orthogonalEdgeStyle;" edge="1" parent="1" source="yg2kx18YFGhvjqjeRE_n-85" target="23">
          <mxGeometry width="50" height="50" relative="1" as="geometry">
            <mxPoint x="1290" y="790" as="sourcePoint" />
            <mxPoint x="1340" y="740" as="targetPoint" />
          </mxGeometry>
        </mxCell>
        <mxCell id="yg2kx18YFGhvjqjeRE_n-89" value="" style="endArrow=none;dashed=1;html=1;rounded=0;exitX=0.5;exitY=0;exitDx=0;exitDy=0;edgeStyle=orthogonalEdgeStyle;entryX=0.5;entryY=1;entryDx=0;entryDy=0;" edge="1" parent="1" source="yg2kx18YFGhvjqjeRE_n-86" target="23">
          <mxGeometry width="50" height="50" relative="1" as="geometry">
            <mxPoint x="1290" y="810" as="sourcePoint" />
            <mxPoint x="1190" y="690" as="targetPoint" />
          </mxGeometry>
        </mxCell>
        <mxCell id="yg2kx18YFGhvjqjeRE_n-95" style="edgeStyle=orthogonalEdgeStyle;rounded=0;orthogonalLoop=1;jettySize=auto;html=1;exitX=0;exitY=0.5;exitDx=0;exitDy=0;" edge="1" parent="1" source="yg2kx18YFGhvjqjeRE_n-90" target="yg2kx18YFGhvjqjeRE_n-91">
          <mxGeometry relative="1" as="geometry" />
        </mxCell>
        <mxCell id="yg2kx18YFGhvjqjeRE_n-90" value="桑塔索菲亚 德拉 彼达(14)&#xa;8想与3做爱, 3花钱买14给8&#xa;后与8结婚" style="rounded=1;fillColor=#10739E;strokeColor=none;shadow=1;gradientColor=none;fontStyle=1;fontColor=#FFFFFF;fontSize=14;" vertex="1" parent="1">
          <mxGeometry x="460" y="1020" width="172.5" height="70" as="geometry" />
        </mxCell>
        <mxCell id="yg2kx18YFGhvjqjeRE_n-91" value="奥雷里亚诺 第二(15)" style="rounded=1;fillColor=#10739E;strokeColor=none;shadow=1;gradientColor=none;fontStyle=1;fontColor=#FFFFFF;fontSize=14;" vertex="1" parent="1">
          <mxGeometry x="313.75" y="1171" width="172.5" height="70" as="geometry" />
        </mxCell>
        <mxCell id="yg2kx18YFGhvjqjeRE_n-92" value="何塞 阿尔卡蒂奥 第二 (16)&#xa;" style="rounded=1;fillColor=#10739E;strokeColor=none;shadow=1;gradientColor=none;fontStyle=1;fontColor=#FFFFFF;fontSize=14;" vertex="1" parent="1">
          <mxGeometry x="542" y="1171" width="172.5" height="70" as="geometry" />
        </mxCell>
        <mxCell id="yg2kx18YFGhvjqjeRE_n-93" value="美人儿 蕾梅黛丝(17)" style="rounded=1;fillColor=#10739E;strokeColor=none;shadow=1;gradientColor=none;fontStyle=1;fontColor=#FFFFFF;fontSize=14;" vertex="1" parent="1">
          <mxGeometry x="760" y="1171" width="172.5" height="70" as="geometry" />
        </mxCell>
      </root>
    </mxGraphModel>
  </diagram>
</mxfile>
